<?xml version="1.0" encoding="utf-8"?>
<!-- Generator: Adobe Illustrator 22.0.1, SVG Export Plug-In . SVG Version: 6.00 Build 0)  -->
<svg version="1.1" id="Outline" xmlns="http://www.w3.org/2000/svg" xmlns:xlink="http://www.w3.org/1999/xlink" x="0px" y="0px"
	 viewBox="0 0 512 512" style="enable-background:new 0 0 512 512;" xml:space="preserve">
<style type="text/css">
	.st0{fill:#FFFFFF;}
</style>
<g>
	<path class="st0" d="M112,496h288c4.4,0,8-3.6,8-8V24c0-4.4-3.6-8-8-8H112c-4.4,0-8,3.6-8,8v464C104,492.4,107.6,496,112,496z
		 M248,400v80h-24v-80H248z M288,400v80h-24v-80H288z M120,32h272v448h-88v-80h16c4.4,0,8-3.6,8-8s-3.6-8-8-8H192c-4.4,0-8,3.6-8,8
		s3.6,8,8,8h16v80h-88V32z"/>
	<path class="st0" d="M208,96h32c4.4,0,8-3.6,8-8V56c0-4.4-3.6-8-8-8h-32c-4.4,0-8,3.6-8,8v32C200,92.4,203.6,96,208,96z M216,64h16
		v16h-16V64z"/>
	<path class="st0" d="M272,96h32c4.4,0,8-3.6,8-8V56c0-4.4-3.6-8-8-8h-32c-4.4,0-8,3.6-8,8v32C264,92.4,267.6,96,272,96z M280,64h16
		v16h-16V64z"/>
	<path class="st0" d="M336,96h32c4.4,0,8-3.6,8-8V56c0-4.4-3.6-8-8-8h-32c-4.4,0-8,3.6-8,8v32C328,92.4,331.6,96,336,96z M344,64h16
		v16h-16V64z"/>
	<path class="st0" d="M208,160h32c4.4,0,8-3.6,8-8v-32c0-4.4-3.6-8-8-8h-32c-4.4,0-8,3.6-8,8v32C200,156.4,203.6,160,208,160z
		 M216,128h16v16h-16V128z"/>
	<path class="st0" d="M144,96h32c4.4,0,8-3.6,8-8V56c0-4.4-3.6-8-8-8h-32c-4.4,0-8,3.6-8,8v32C136,92.4,139.6,96,144,96z M152,64h16
		v16h-16V64z"/>
	<path class="st0" d="M144,160h32c4.4,0,8-3.6,8-8v-32c0-4.4-3.6-8-8-8h-32c-4.4,0-8,3.6-8,8v32C136,156.4,139.6,160,144,160z
		 M152,128h16v16h-16V128z"/>
	<path class="st0" d="M272,160h32c4.4,0,8-3.6,8-8v-32c0-4.4-3.6-8-8-8h-32c-4.4,0-8,3.6-8,8v32C264,156.4,267.6,160,272,160z
		 M280,128h16v16h-16V128z"/>
	<path class="st0" d="M208,224h32c4.4,0,8-3.6,8-8v-32c0-4.4-3.6-8-8-8h-32c-4.4,0-8,3.6-8,8v32C200,220.4,203.6,224,208,224z
		 M216,192h16v16h-16V192z"/>
	<path class="st0" d="M144,224h32c4.4,0,8-3.6,8-8v-32c0-4.4-3.6-8-8-8h-32c-4.4,0-8,3.6-8,8v32C136,220.4,139.6,224,144,224z
		 M152,192h16v16h-16V192z"/>
	<path class="st0" d="M272,224h32c4.4,0,8-3.6,8-8v-32c0-4.4-3.6-8-8-8h-32c-4.4,0-8,3.6-8,8v32C264,220.4,267.6,224,272,224z
		 M280,192h16v16h-16V192z"/>
	<path class="st0" d="M208,288h32c4.4,0,8-3.6,8-8v-32c0-4.4-3.6-8-8-8h-32c-4.4,0-8,3.6-8,8v32C200,284.4,203.6,288,208,288z
		 M216,256h16v16h-16V256z"/>
	<path class="st0" d="M272,288h32c4.4,0,8-3.6,8-8v-32c0-4.4-3.6-8-8-8h-32c-4.4,0-8,3.6-8,8v32C264,284.4,267.6,288,272,288z
		 M280,256h16v16h-16V256z"/>
	<path class="st0" d="M208,352h32c4.4,0,8-3.6,8-8v-32c0-4.4-3.6-8-8-8h-32c-4.4,0-8,3.6-8,8v32C200,348.4,203.6,352,208,352z
		 M216,320h16v16h-16V320z"/>
	<path class="st0" d="M144,288h32c4.4,0,8-3.6,8-8v-32c0-4.4-3.6-8-8-8h-32c-4.4,0-8,3.6-8,8v32C136,284.4,139.6,288,144,288z
		 M152,256h16v16h-16V256z"/>
	<path class="st0" d="M184,312c0-4.4-3.6-8-8-8h-32c-4.4,0-8,3.6-8,8v32c0,4.4,3.6,8,8,8h32c4.4,0,8-3.6,8-8V312z M168,336h-16v-16
		h16V336z"/>
	<path class="st0" d="M336,352h32c4.4,0,8-3.6,8-8v-32c0-4.4-3.6-8-8-8h-32c-4.4,0-8,3.6-8,8v32C328,348.4,331.6,352,336,352z
		 M344,320h16v16h-16V320z"/>
	<path class="st0" d="M272,352h32c4.4,0,8-3.6,8-8v-32c0-4.4-3.6-8-8-8h-32c-4.4,0-8,3.6-8,8v32C264,348.4,267.6,352,272,352z
		 M280,320h16v16h-16V320z"/>
	<path class="st0" d="M336,160h32c4.4,0,8-3.6,8-8v-32c0-4.4-3.6-8-8-8h-32c-4.4,0-8,3.6-8,8v32C328,156.4,331.6,160,336,160z
		 M344,128h16v16h-16V128z"/>
	<path class="st0" d="M336,224h32c4.4,0,8-3.6,8-8v-32c0-4.4-3.6-8-8-8h-32c-4.4,0-8,3.6-8,8v32C328,220.4,331.6,224,336,224z
		 M344,192h16v16h-16V192z"/>
	<path class="st0" d="M336,288h32c4.4,0,8-3.6,8-8v-32c0-4.4-3.6-8-8-8h-32c-4.4,0-8,3.6-8,8v32C328,284.4,331.6,288,336,288z
		 M344,256h16v16h-16V256z"/>
</g>
</svg>
