<?xml version="1.0" encoding="utf-8"?>
<!-- Generator: Adobe Illustrator 22.0.1, SVG Export Plug-In . SVG Version: 6.00 Build 0)  -->
<svg version="1.1" id="Layer_1" xmlns="http://www.w3.org/2000/svg" xmlns:xlink="http://www.w3.org/1999/xlink" x="0px" y="0px"
	 viewBox="0 0 512 512" style="enable-background:new 0 0 512 512;" xml:space="preserve">
<style type="text/css">
	.st0{fill:#FFFFFF;}
</style>
<path class="st0" d="M471.4,72.8C444.9,44,408.5,28.2,369,28.2c-29.6,0-56.6,9.3-80.6,27.8c-12,9.3-22.9,20.7-32.5,34
	c-9.6-13.3-20.5-24.7-32.5-34c-23.8-18.5-50.8-27.8-80.4-27.8c-39.5,0-75.9,15.8-102.4,44.6C14.4,101.2,0,140,0,182.1
	c0,43.3,16.1,82.9,50.8,124.7c31,37.4,75.5,75.4,127.1,119.3l0.1,0.1c17.6,15,37.5,32,58.2,50.1c5.5,4.8,12.5,7.4,19.8,7.4
	s14.3-2.6,19.8-7.4c20.7-18.2,40.7-35.2,58.3-50.2c51.6-43.9,96.1-81.9,127.1-119.3C495.9,265,512,225.5,512,182.1
	C512,140,497.6,101.2,471.4,72.8z"/>
</svg>
