<?xml version="1.0" encoding="utf-8"?>
<!-- Generator: Adobe Illustrator 22.0.1, SVG Export Plug-In . SVG Version: 6.00 Build 0)  -->
<svg version="1.1" id="레이어_1" xmlns="http://www.w3.org/2000/svg" xmlns:xlink="http://www.w3.org/1999/xlink" x="0px"
	 y="0px" viewBox="0 0 1920 1080" style="enable-background:new 0 0 1920 1080;" xml:space="preserve">
<style type="text/css">
	.st0{fill:#564EC8;}
	.st1{fill:#FFC700;}
</style>
<g>
	<path class="st0" d="M1095.8,752.1c0.7,0.1,1.3,0.2,1.8,0.2C1097.1,752.2,1096.4,752.2,1095.8,752.1z"/>
	<path class="st0" d="M1902,327.8c0.8,0.2,1.5,0.2,2.2,0.2C1903.5,328,1902.7,327.9,1902,327.8z"/>
	<path class="st0" d="M780.4,431.6c-3.6-1.7-7.5-2.7-11.7-3.2c-4.1-0.5-8-0.7-11.7-0.7c-12.2,0-24,2.5-35.3,7.4
		c-11.3,5-21.5,11.8-30.8,20.4c-4.3-9.3-10.7-16.2-19.1-20.9c-8.4-4.6-17.5-7-27.1-7c-6.6,0-12.9,1.1-18.9,3.2
		c-6,2.2-11.3,5.3-15.9,9.4c-4.6,4.1-8.4,9.3-11.2,15.4c-2.8,6.1-4.2,13.3-4.2,21.6V738h100.8V563.2c0.7-12.6,4.9-22.5,12.7-29.8
		c7.8-7.3,18.6-11.4,32.5-12.4c3.6-0.3,7.4-0.4,11.4-0.2c4,0.2,7.8,0.2,11.4,0.2c10.9,0,20.4-3.5,28.5-10.4c8.1-7,13-16.2,14.6-27.8
		c1.7-11.6,0.1-22-4.7-31.3C797.2,442.2,790,435.6,780.4,431.6z"/>
	<path class="st0" d="M1898.3,498.7c-6.5-17.5-15.1-31.5-25.8-42c-10.8-10.4-23.3-17.9-37.5-22.3c-14.2-4.5-29.3-6.7-45.2-6.7
		c-20.2,0-37.6,3.2-52.1,9.4c-14.6,6.3-27,14.7-37.2,25.3c-10.6-12.6-22.8-21.5-36.7-26.8c-13.9-5.3-28.5-7.9-43.7-7.9
		c-27.1,0-50.3,9.1-69.5,27.3c-4-8.9-10.2-15.7-18.6-20.4c-8.4-4.6-17.5-7-27.1-7c-6.6,0-12.9,1.1-18.9,3.2
		c-6,2.2-11.3,5.3-15.9,9.4c-4.6,4.1-8.4,9.3-11.2,15.4c-2.8,6.1-4.2,13.3-4.2,21.6V738h100.8V555.3c0.3-7.9,1.7-14.6,4.2-20.1
		c2.5-5.5,5.5-9.8,9.2-13.2c3.6-3.3,7.7-5.7,12.2-7.2c4.5-1.5,8.7-2.2,12.7-2.2c4,0,8.2,0.7,12.7,2.2c4.5,1.5,8.6,4.1,12.4,7.7
		c3.8,3.6,6.9,8.4,9.2,14.2c2.3,5.8,3.5,12.8,3.5,21.1V738h98.3V557.7c0-8.3,1.2-15.3,3.7-21.1c2.5-5.8,5.5-10.5,9.2-14.2
		c3.6-3.6,7.8-6.2,12.4-7.7c4.6-1.5,8.9-2.2,12.9-2.2c4,0,8.2,0.7,12.7,2.2c4.5,1.5,8.6,4.1,12.4,7.7c3.8,3.6,6.9,8.4,9.2,14.2
		c2.3,5.8,3.5,12.8,3.5,21.1V738H1908V563.7C1908,537.9,1904.8,516.2,1898.3,498.7z"/>
	<path class="st0" d="M1047.8,639.2c0.4-2,1.5-3.6,2.9-5c4-3.8,8.3-7.2,12.6-10.6c5.2-4.3,10.4-8.6,15.6-12.9
		c7.2-5.9,14.3-11.8,21.5-17.7c0.5-0.4,1-0.8,1.5-1.1c0,0,0,0,0,0c0.8-0.6,1.5-1.3,2.3-1.9v-25.8c0-26.8-4.4-49-13.2-66.5
		c-8.8-17.5-20.1-31.6-34-42.2c-13.9-10.6-29.4-18-46.4-22.3c-17.1-4.3-33.8-6.5-50.4-6.5c-16.9,0-33.8,2.2-50.9,6.5
		c-17.1,4.3-32.5,11.8-46.4,22.3c-13.9,10.6-25.2,24.7-33.8,42.2c-8.6,17.5-12.9,39.7-12.9,66.5v45.7c0,26.8,4.4,49,13.2,66.5
		c8.8,17.5,20.1,31.6,34,42.2c13.9,10.6,29.4,18,46.4,22.3c17,4.3,33.8,6.5,50.4,6.5c16.5,0,33.3-2.2,50.4-6.5
		c13-3.3,25.1-8.4,36.3-15.4c0-26.6,0-53.3,0-79.9C1046.9,643.5,1046.8,641.3,1047.8,639.2z M1004.4,614.3c0,8.9-1.3,16.5-4,22.6
		c-2.7,6.1-6,11.2-10.2,15.1c-4.1,4-8.9,6.9-14.1,8.7c-5.3,1.8-10.6,2.7-15.9,2.7c-5.3,0-10.6-0.9-15.9-2.7
		c-5.3-1.8-10-4.7-14.1-8.7c-4.1-4-7.5-9-10.2-15.1c-2.7-6.1-4-13.7-4-22.6v-54.6c0-8.9,1.3-16.5,4-22.6c2.6-6.1,6-11.2,10.2-15.1
		c4.1-4,8.9-6.9,14.1-8.7c5.3-1.8,10.6-2.7,15.9-2.7c5.3,0,10.6,0.9,15.9,2.7c5.3,1.8,10,4.7,14.1,8.7c4.1,4,7.5,9,10.2,15.1
		c2.6,6.1,4,13.7,4,22.6V614.3z"/>
	<path class="st0" d="M1374.3,455.5c-13.9-10.6-29.4-18-46.4-22.3c-17.1-4.3-33.8-6.5-50.4-6.5c-16.9,0-33.8,2.2-50.9,6.5
		c-17.1,4.3-32.5,11.8-46.4,22.3c-13.9,10.6-25.2,24.7-33.8,42.2c-8.6,17.5-12.9,39.7-12.9,66.5v25.5c0.1,0.1,0.2,0.2,0.2,0.2
		c0,0,0,0,0,0c0.3,0.3,0.6,0.5,0.9,0.8c0,0,0,0,0,0c4.4,3.5,8.8,7.1,13,10.7c1.4,1.1,2.8,2.3,4.1,3.4c4.4,3.6,8.7,7.2,13.1,10.8
		c1.3,0.9,2.5,1.8,3.5,2.9c4.6,3.6,9.1,7.2,13.4,11.1c1.5,0.7,2.6,1.9,3.8,3c3.2,2.3,4.9,5.5,5.1,9.4c0.1,3.3,0,6.6,0,9.9
		c0,2.2,0,4.4,0,6.5c0,8.2,0,16.3,0,24.5c0,2.2,0,4.4,0,6.5c0,8.2,0,16.3,0,24.5c0,2.2,0,4.4,0,6.5c0,1.7,0,3.3,0,5
		c11.2,7,23.3,12.1,36.3,15.4c17,4.3,33.8,6.5,50.4,6.5c16.5,0,33.3-2.2,50.4-6.5c17-4.3,32.5-11.7,46.4-22.3
		c13.9-10.6,25.2-24.7,34-42.2c8.8-17.5,13.2-39.7,13.2-66.5v-45.7c0-26.8-4.4-49-13.2-66.5C1399.5,480.1,1388.2,466.1,1374.3,455.5
		z M1321.6,614.3c0,8.9-1.3,16.5-4,22.6c-2.7,6.1-6,11.2-10.2,15.1c-4.1,4-8.9,6.9-14.1,8.7c-5.3,1.8-10.6,2.7-15.9,2.7
		c-5.3,0-10.6-0.9-15.9-2.7c-5.3-1.8-10-4.7-14.1-8.7c-4.1-4-7.5-9-10.2-15.1c-2.7-6.1-4-13.7-4-22.6v-54.6c0-8.9,1.3-16.5,4-22.6
		c2.6-6.1,6-11.2,10.2-15.1c4.1-4,8.9-6.9,14.1-8.7c5.3-1.8,10.6-2.7,15.9-2.7c5.3,0,10.6,0.9,15.9,2.7c5.3,1.8,10,4.7,14.1,8.7
		c4.1,4,7.5,9,10.2,15.1c2.6,6.1,4,13.7,4,22.6V614.3z"/>
	<path class="st1" d="M1169.1,699.2c0-5.7,0-11.4,0-17.1c0-1.5,0-3.1,0-4.6c0-5.7,0-11.4,0-17.1c0-1.5,0-3.1,0-4.6
		c0-2.3,0.1-4.6,0-6.9c-0.1-2.7-1.3-5-3.6-6.6c-0.8-0.8-1.6-1.6-2.7-2.1c-3-2.8-6.2-5.3-9.4-7.8c-0.7-0.8-1.6-1.4-2.5-2.1
		c-3-2.5-6.1-5-9.1-7.5c-1-0.8-1.9-1.6-2.9-2.4c-1.8-1.6-3.6-3.1-5.5-4.6c-1.2-1-2.4-2-3.7-2.9c-0.2-0.2-0.4-0.4-0.6-0.5
		c0,0,0,0,0,0c-0.5-0.5-1.1-1.1-1.8-1.4v0c-0.1-0.1-0.2-0.1-0.2-0.2c-0.9-0.9-2-1.8-3.1-2.5c-3.3-2.2-7.6-2.2-10.7,0.2
		c-2.2,1.7-4.3,3.6-6.5,5.3c0,0,0,0,0,0c-0.4,0.3-0.7,0.5-1.1,0.8c-0.6,0.5-1.2,1-1.8,1.5c-4.4,3.6-8.8,7.3-13.2,10.9
		c-3.6,3-7.3,6-10.9,9.1c-3,2.4-6.1,4.7-8.8,7.4c-1,0.9-1.7,2.1-2,3.5c-0.6,1.4-0.6,3-0.6,4.5c0,19,0,38.1,0,57.1c0,1,0,1.9,0,2.9
		c0,0.5,0,1,0.1,1.5c0,0.2,0,0.3,0.1,0.5c-0.1,1.4,0.3,2.6,1,3.8c1.5,3.1,4,4.9,7.4,5.3c0.5,0.1,1.1,0.1,1.6,0.1c-0.5,0-1,0-1.6-0.1
		c0.7,0.2,1.3,0.2,2,0.2c26.5,0,53,0,79.5,0c0.7,0,1.4,0,2-0.2c4.5-0.4,8.4-4.4,8.6-9.2c0.1-1.6,0.1-3.1,0-4.7c0-1.6,0-3.1,0-4.7
		C1169.1,702.3,1169.1,700.7,1169.1,699.2z M1134.4,690.7c0,2.4-1.9,4.3-4.3,4.3h-23c-2.4,0-4.3-1.9-4.3-4.3v-23
		c0-2.4,1.9-4.3,4.3-4.3h23c2.4,0,4.3,1.9,4.3,4.3V690.7z"/>
	<path class="st0" d="M99.9,338.5c-10.3-7.1-22.3-10.7-36.2-10.7c-13.9,0-26,3.6-36.2,10.7c-10.3,7.1-15.4,18.8-15.4,35
		c0,8.3,1.4,15.3,4.2,21.1c2.8,5.8,6.5,10.5,11.2,14.2c4.6,3.6,10.1,6.3,16.4,7.9c6.3,1.7,12.9,2.5,19.9,2.5c7,0,13.6-0.8,19.9-2.5
		c6.3-1.7,11.7-4.3,16.4-7.9c4.6-3.6,8.4-8.4,11.2-14.2c2.8-5.8,4.2-12.8,4.2-21.1C115.3,357.3,110.1,345.7,99.9,338.5z"/>
	<path class="st0" d="M99.6,452.5c-10.1-7.9-22.1-11.9-36-11.9c-13.9,0-25.9,4-36,11.9c-10.1,7.9-15.1,20.5-15.1,37.7v257.2h102.3
		V490.2C114.8,473,109.7,460.4,99.6,452.5z"/>
	<path class="st0" d="M370.2,646.5c0.5-2.4,1.8-4.4,3.5-6c4.8-4.6,10-8.6,15.2-12.7c6.2-5.2,12.5-10.4,18.7-15.5
		c8.6-7.1,17.2-14.2,25.8-21.2c0.6-0.5,1.2-0.9,1.8-1.4c0,0,0,0,0,0c0.5-0.4,0.9-0.8,1.4-1.2v-15.4c0-26.1-3-48-8.9-65.5
		c-6-17.5-14-31.5-24.1-42c-10.1-10.4-22-17.8-35.7-22.1c-13.7-4.3-28.5-6.5-44.4-6.5c-13.2,0-26.2,2.3-39,7
		c-12.7,4.6-23.9,11.4-33.5,20.4c-4.3-8.9-10.7-15.7-19.1-20.4c-8.4-4.6-17.5-7-27.1-7c-6.6,0-12.9,1.1-18.9,3.2
		c-6,2.2-11.3,5.3-15.9,9.4c-4.6,4.1-8.4,9.3-11.2,15.4c-2.8,6.1-4.2,13.3-4.2,21.6v260.7h100.8V567.2c0-8.3,1.2-15.3,3.7-21.1
		c2.5-5.8,5.7-10.5,9.7-14.2c4-3.6,8.3-6.2,12.9-7.7c4.6-1.5,9.1-2.2,13.4-2.2c4.3,0,8.8,0.7,13.4,2.2c4.6,1.5,8.9,4.1,12.7,7.7
		c3.8,3.6,7,8.4,9.4,14.2c2.5,5.8,3.7,12.8,3.7,21.1v180.2h34.9c0-31.1,0-62.1,0-93.2C369.1,651.6,369.1,648.9,370.2,646.5z"/>
	<path class="st1" d="M515.8,718.4c0-6.8,0-13.7,0-20.5c0-1.8,0-3.7,0-5.5c0-6.8,0-13.7,0-20.5c0-1.8,0-3.7,0-5.5
		c0-2.8,0.1-5.6,0-8.3c-0.1-3.3-1.6-6-4.3-7.9c-1-0.9-2-1.9-3.2-2.5c-3.6-3.3-7.4-6.3-11.2-9.4c-0.9-0.9-1.9-1.7-3-2.5
		c-3.7-3-7.3-6-11-9c-1.2-1-2.3-1.9-3.5-2.9c-3.6-3.1-7.2-6.1-11-9c-0.3-0.2-0.5-0.4-0.8-0.6c0,0,0,0,0,0c-0.6-0.7-1.3-1.3-2.1-1.7
		v0c-0.1-0.1-0.2-0.2-0.3-0.3c-1.1-1.1-2.4-2.1-3.7-3c-4-2.6-9.1-2.6-12.9,0.2c-2.7,2-5.2,4.3-7.8,6.4c0,0,0,0,0,0
		c-0.4,0.3-0.9,0.6-1.3,0.9c-1.1,0.9-2.3,1.9-3.4,2.8c-4.9,4-9.7,8-14.6,12c-4.4,3.6-8.7,7.2-13.1,10.9c-3.6,2.8-7.3,5.7-10.6,8.9
		c-1.2,1.1-2.1,2.5-2.4,4.2c-0.8,1.7-0.7,3.6-0.7,5.4c0,24,0,48,0,72c0,0.6,0,1.2,0.1,1.7c0,0.2,0.1,0.4,0.1,0.6
		c-0.1,1.6,0.3,3.1,1.2,4.5c1.8,3.7,4.8,5.9,8.9,6.4c0.6,0.1,1.3,0.2,1.9,0.2c-0.6,0-1.2,0-1.9-0.2c0.8,0.3,1.6,0.2,2.4,0.2
		c9.6,0,19.2,0,28.8,0c22.2,0,44.4,0,66.6,0c0.8,0,1.6,0.1,2.4-0.2c5.5-0.4,10.1-5.3,10.3-11c0.1-3.7,0-7.5,0-11.3
		C515.8,722.1,515.8,720.3,515.8,718.4z M474.1,709.1c0,2.4-1.9,4.3-4.3,4.3h-29.4c-1.8,0-3.3-1.1-3.9-2.6c-0.2-0.5-0.4-1.1-0.4-1.7
		v-29.4c0-0.6,0.1-1.2,0.4-1.7c0.7-1.5,2.2-2.6,3.9-2.6h29.4c2.4,0,4.3,1.9,4.3,4.3V709.1z"/>
</g>
</svg>
