<?xml version="1.0" encoding="utf-8"?>
<!-- Generator: Adobe Illustrator 22.0.1, SVG Export Plug-In . SVG Version: 6.00 Build 0)  -->
<svg version="1.1" id="레이어_1" xmlns="http://www.w3.org/2000/svg" xmlns:xlink="http://www.w3.org/1999/xlink" x="0px"
	 y="0px" viewBox="0 0 1920 1080" style="enable-background:new 0 0 1920 1080;" xml:space="preserve">
<style type="text/css">
	.st0{fill:#564EC8;}
	.st1{fill:#FFFFFF;}
	.st2{fill:#FFC700;}
</style>
<g>
	<path class="st0" d="M1841.3,880.8H78.8c-27.5,0-50-22.5-50-50V249.2c0-27.5,22.5-50,50-50h1762.5c27.5,0,50,22.5,50,50v581.5
		C1891.3,858.3,1868.8,880.8,1841.3,880.8z"/>
	<path class="st0" d="M1067.3,709.4c0.5,0.1,1,0.1,1.5,0.1C1068.3,709.5,1067.8,709.5,1067.3,709.4z"/>
	<path class="st0" d="M1704.1,374.2c0.6,0.1,1.2,0.2,1.7,0.1C1705.3,374.4,1704.7,374.3,1704.1,374.2z"/>
	<g>
		<path class="st1" d="M818.2,456.3c-2.9-1.3-6-2.2-9.2-2.5c-3.3-0.4-6.3-0.6-9.2-0.6c-9.7,0-19,2-27.8,5.9
			c-8.9,3.9-17,9.3-24.3,16.1c-3.4-7.3-8.4-12.8-15.1-16.5c-6.7-3.7-13.8-5.5-21.4-5.5c-5.2,0-10.2,0.9-14.9,2.5
			c-4.7,1.7-8.9,4.2-12.5,7.5c-3.7,3.3-6.6,7.3-8.8,12.2c-2.2,4.8-3.3,10.5-3.3,17.1v205.9h79.6V560.2c0.5-9.9,3.9-17.8,10-23.5
			c6.1-5.7,14.7-9,25.7-9.8c2.9-0.3,5.9-0.3,9-0.2c3.1,0.1,6.1,0.2,9,0.2c8.6,0,16.1-2.7,22.6-8.2c6.4-5.5,10.3-12.8,11.6-22
			c1.3-9.1,0.1-17.4-3.7-24.7C831.4,464.6,825.7,459.4,818.2,456.3z"/>
		<path class="st1" d="M1701.2,509.2c-5.1-13.9-11.9-24.9-20.4-33.1c-8.5-8.2-18.4-14.1-29.6-17.6c-11.2-3.5-23.1-5.3-35.7-5.3
			c-16,0-29.7,2.5-41.2,7.5c-11.5,5-21.3,11.6-29.4,20c-8.4-9.9-18-17-29-21.2c-11-4.2-22.5-6.3-34.5-6.3
			c-21.4,0-39.7,7.2-54.9,21.6c-3.1-7.1-8-12.4-14.7-16.1c-6.7-3.7-13.8-5.5-21.4-5.5c-5.2,0-10.2,0.9-14.9,2.5
			c-4.7,1.7-8.9,4.2-12.6,7.5c-3.7,3.3-6.6,7.3-8.8,12.2c-2.2,4.8-3.3,10.5-3.3,17.1v205.9h79.6V553.9c0.3-6.3,1.4-11.6,3.3-15.9
			c2-4.3,4.4-7.8,7.3-10.4c2.9-2.6,6.1-4.5,9.6-5.7c3.5-1.2,6.9-1.8,10-1.8c3.1,0,6.5,0.6,10,1.8c3.5,1.2,6.8,3.2,9.8,6.1
			c3,2.9,5.4,6.6,7.3,11.2c1.8,4.6,2.7,10.1,2.7,16.7v142.4h77.7V555.9c0-6.5,1-12.1,2.9-16.7c2-4.6,4.4-8.3,7.3-11.2
			c2.9-2.9,6.1-4.9,9.8-6.1c3.7-1.2,7.1-1.8,10.2-1.8c3.1,0,6.5,0.6,10,1.8c3.5,1.2,6.8,3.2,9.8,6.1c3,2.9,5.4,6.6,7.3,11.2
			c1.8,4.6,2.7,10.1,2.7,16.7v142.4h80.8V560.6C1708.9,540.2,1706.3,523.1,1701.2,509.2z"/>
		<path class="st1" d="M1029.3,620.3c0.3-1.6,1.2-2.9,2.3-3.9c3.1-3,6.6-5.7,10-8.3c4.1-3.4,8.2-6.8,12.3-10.2
			c5.6-4.7,11.3-9.3,17-14c0.4-0.3,0.8-0.6,1.2-0.9c0,0,0,0,0,0c0.6-0.5,1.2-1,1.8-1.5V561c0-21.2-3.5-38.7-10.4-52.6
			c-6.9-13.9-15.9-25-26.9-33.3c-11-8.4-23.2-14.2-36.7-17.6c-13.5-3.4-26.7-5.1-39.8-5.1c-13.3,0-26.7,1.7-40.2,5.1
			c-13.5,3.4-25.7,9.3-36.7,17.6c-11,8.4-19.9,19.5-26.7,33.3c-6.8,13.9-10.2,31.4-10.2,52.6v36.1c0,21.2,3.5,38.7,10.4,52.6
			c6.9,13.9,15.9,25,26.9,33.3c11,8.4,23.2,14.2,36.7,17.6c13.5,3.4,26.7,5.1,39.8,5.1c13.1,0,26.3-1.7,39.8-5.1
			c10.3-2.6,19.8-6.6,28.7-12.1c0-21,0-42.1,0-63.1C1028.6,623.6,1028.6,621.9,1029.3,620.3z M995,600.6c0,7.1-1,13-3.1,17.8
			c-2.1,4.8-4.8,8.8-8,12c-3.3,3.1-7,5.4-11.2,6.9c-4.2,1.4-8.4,2.2-12.6,2.2c-4.2,0-8.4-0.7-12.6-2.2c-4.2-1.4-7.9-3.7-11.2-6.9
			c-3.3-3.1-6-7.1-8-12c-2.1-4.8-3.1-10.8-3.1-17.8v-43.1c0-7.1,1-13,3.1-17.8c2.1-4.8,4.8-8.8,8-12c3.3-3.1,7-5.4,11.2-6.9
			c4.2-1.4,8.4-2.2,12.6-2.2c4.2,0,8.4,0.7,12.6,2.2c4.2,1.4,7.9,3.7,11.2,6.9c3.3,3.1,5.9,7.1,8,12c2.1,4.8,3.1,10.8,3.1,17.8
			V600.6z"/>
		<path class="st1" d="M1287.2,475.1c-11-8.4-23.2-14.2-36.7-17.6c-13.5-3.4-26.7-5.1-39.8-5.1c-13.3,0-26.7,1.7-40.2,5.1
			c-13.5,3.4-25.7,9.3-36.7,17.6c-11,8.4-19.9,19.5-26.7,33.3c-6.8,13.9-10.2,31.4-10.2,52.6v20.2c0.1,0.1,0.1,0.1,0.2,0.2
			c0,0,0,0,0,0c0.2,0.2,0.5,0.4,0.7,0.6c0,0,0,0,0,0c3.5,2.7,6.9,5.6,10.3,8.5c1.1,0.9,2.2,1.8,3.3,2.7c3.4,2.8,6.9,5.7,10.3,8.5
			c1,0.7,1.9,1.4,2.8,2.3c3.6,2.8,7.2,5.7,10.6,8.8c1.2,0.6,2.1,1.5,3,2.4c2.6,1.8,3.9,4.4,4,7.4c0.1,2.6,0,5.2,0,7.8
			c0,1.7,0,3.4,0,5.2c0,6.4,0,12.9,0,19.3c0,1.7,0,3.4,0,5.2c0,6.4,0,12.9,0,19.3c0,1.7,0,3.4,0,5.2c0,1.3,0,2.6,0,3.9
			c8.8,5.5,18.4,9.6,28.7,12.2c13.5,3.4,26.7,5.1,39.8,5.1c13.1,0,26.3-1.7,39.8-5.1c13.5-3.4,25.7-9.3,36.7-17.6
			c11-8.4,19.9-19.5,26.9-33.3c6.9-13.9,10.4-31.4,10.4-52.6V561c0-21.2-3.5-38.7-10.4-52.6C1307.2,494.6,1298.2,483.5,1287.2,475.1
			z M1245.7,600.6c0,7.1-1,13-3.1,17.8c-2.1,4.8-4.8,8.8-8,12c-3.3,3.1-7,5.4-11.2,6.9c-4.2,1.4-8.4,2.2-12.6,2.2
			c-4.2,0-8.4-0.7-12.6-2.2c-4.2-1.4-7.9-3.7-11.2-6.9c-3.3-3.1-6-7.1-8-12c-2.1-4.8-3.1-10.8-3.1-17.8v-43.1c0-7.1,1-13,3.1-17.8
			c2.1-4.8,4.8-8.8,8-12c3.3-3.1,7-5.4,11.2-6.9c4.2-1.4,8.4-2.2,12.6-2.2c4.2,0,8.4,0.7,12.6,2.2c4.2,1.4,7.9,3.7,11.2,6.9
			c3.3,3.1,5.9,7.1,8,12c2.1,4.8,3.1,10.8,3.1,17.8V600.6z"/>
		<path class="st2" d="M1125.2,667.6c0-4.5,0-9,0-13.5c0-1.2,0-2.4,0-3.6c0-4.5,0-9,0-13.5c0-1.2,0-2.4,0-3.6c0-1.8,0.1-3.7,0-5.5
			c-0.1-2.2-1-3.9-2.8-5.2c-0.7-0.6-1.3-1.3-2.1-1.7c-2.3-2.2-4.9-4.2-7.4-6.2c-0.6-0.6-1.3-1.1-1.9-1.6c-2.4-2-4.8-4-7.2-5.9
			c-0.8-0.6-1.5-1.3-2.3-1.9c-1.4-1.2-2.9-2.4-4.3-3.6c-1-0.8-1.9-1.6-2.9-2.3c-0.2-0.1-0.3-0.3-0.5-0.4c0,0,0,0,0,0
			c-0.4-0.4-0.9-0.8-1.4-1.1v0c-0.1-0.1-0.1-0.1-0.2-0.2c-0.7-0.7-1.5-1.4-2.4-2c-2.6-1.7-6-1.7-8.5,0.1c-1.8,1.3-3.4,2.8-5.1,4.2
			c0,0,0,0,0,0c-0.3,0.2-0.6,0.4-0.8,0.6c-0.5,0.4-1,0.8-1.4,1.2c-3.5,2.9-7,5.7-10.4,8.6c-2.9,2.4-5.7,4.8-8.6,7.2
			c-2.4,1.9-4.8,3.7-7,5.8c-0.8,0.7-1.4,1.7-1.6,2.8c-0.5,1.1-0.5,2.4-0.5,3.6c0,15,0,30.1,0,45.1c0,0.8,0,1.5,0,2.3
			c0,0.4,0,0.8,0,1.1c0,0.1,0,0.2,0.1,0.4c0,1.1,0.2,2.1,0.8,3c1.2,2.4,3.2,3.9,5.9,4.2c0.4,0.1,0.8,0.1,1.3,0.1
			c-0.4,0-0.8,0-1.3-0.1c0.5,0.2,1.1,0.2,1.6,0.2c20.9,0,41.9,0,62.8,0c0.5,0,1.1,0,1.6-0.1c3.6-0.3,6.6-3.5,6.8-7.3
			c0-1.2,0-2.5,0-3.7c0-1.2,0-2.5,0-3.7C1125.2,670,1125.2,668.8,1125.2,667.6z M1097.7,660.9c0,1.9-1.5,3.4-3.4,3.4h-18.2
			c-1.9,0-3.4-1.5-3.4-3.4v-18.2c0-1.9,1.5-3.4,3.4-3.4h18.2c1.9,0,3.4,1.5,3.4,3.4V660.9z"/>
		<path class="st1" d="M280.6,382.7c-8.1-5.6-17.6-8.4-28.6-8.4c-11,0-20.5,2.8-28.6,8.4c-8.1,5.6-12.2,14.8-12.2,27.7
			c0,6.5,1.1,12.1,3.3,16.7c2.2,4.6,5.2,8.3,8.8,11.2c3.7,2.9,8,5,12.9,6.3c5,1.3,10.2,2,15.7,2c5.5,0,10.7-0.6,15.7-2
			c5-1.3,9.3-3.4,12.9-6.3c3.7-2.9,6.6-6.6,8.8-11.2c2.2-4.6,3.3-10.1,3.3-16.7C292.7,397.6,288.7,388.3,280.6,382.7z"/>
		<path class="st1" d="M280.4,472.7c-8-6.3-17.5-9.4-28.4-9.4c-11,0-20.5,3.1-28.4,9.4c-8,6.3-12,16.2-12,29.8v203.2h80.8V502.5
			C292.3,489,288.3,479,280.4,472.7z"/>
		<path class="st1" d="M494.1,626c0.4-1.9,1.4-3.4,2.7-4.7c3.8-3.6,7.9-6.8,12-10c4.9-4.1,9.8-8.2,14.8-12.3
			c6.8-5.6,13.6-11.2,20.4-16.8c0.5-0.4,1-0.7,1.4-1.1c0,0,0,0,0,0c0.4-0.3,0.7-0.6,1.1-0.9V568c0-20.7-2.4-37.9-7.1-51.8
			c-4.7-13.9-11-24.9-19-33.1c-8-8.2-17.4-14.1-28.2-17.5c-10.9-3.4-22.6-5.1-35.1-5.1c-10.5,0-20.7,1.8-30.8,5.5
			c-10.1,3.7-18.9,9-26.5,16.1c-3.4-7.1-8.4-12.4-15.1-16.1c-6.7-3.7-13.8-5.5-21.4-5.5c-5.2,0-10.2,0.9-14.9,2.5
			c-4.7,1.7-8.9,4.2-12.6,7.5c-3.7,3.3-6.6,7.3-8.8,12.2c-2.2,4.8-3.3,10.5-3.3,17.1v205.9h79.6V563.3c0-6.5,1-12.1,2.9-16.7
			c2-4.6,4.5-8.3,7.6-11.2c3.1-2.9,6.5-4.9,10.2-6.1c3.7-1.2,7.2-1.8,10.6-1.8c3.4,0,6.9,0.6,10.6,1.8c3.7,1.2,7,3.2,10,6.1
			c3,2.9,5.5,6.6,7.5,11.2c2,4.6,2.9,10.1,2.9,16.7v142.4h27.6c0-24.5,0-49.1,0-73.6C493.3,630,493.2,627.9,494.1,626z"/>
		<path class="st2" d="M609.1,682.8c0-5.4,0-10.8,0-16.2c0-1.4,0-2.9,0-4.3c0-5.4,0-10.8,0-16.2c0-1.4,0-2.9,0-4.3
			c0-2.2,0.1-4.4,0-6.6c-0.1-2.6-1.2-4.7-3.4-6.3c-0.8-0.7-1.6-1.5-2.6-2c-2.8-2.6-5.9-5-8.9-7.4c-0.7-0.7-1.5-1.4-2.3-2
			c-2.9-2.4-5.8-4.8-8.7-7.1c-0.9-0.8-1.8-1.5-2.7-2.3c-2.8-2.4-5.7-4.8-8.7-7.1c-0.2-0.2-0.4-0.3-0.6-0.5c0,0,0,0,0,0
			c-0.5-0.5-1-1-1.7-1.4v0c-0.1-0.1-0.2-0.1-0.2-0.2c-0.9-0.9-1.9-1.7-2.9-2.4c-3.1-2-7.2-2-10.2,0.2c-2.1,1.6-4.1,3.4-6.1,5.1
			c0,0,0,0,0,0c-0.3,0.2-0.7,0.5-1,0.7c-0.9,0.7-1.8,1.5-2.7,2.2c-3.8,3.2-7.7,6.3-11.5,9.5c-3.5,2.9-6.9,5.7-10.3,8.6
			c-2.9,2.2-5.7,4.5-8.4,7c-0.9,0.9-1.6,2-1.9,3.3c-0.6,1.4-0.6,2.8-0.6,4.3c0,19,0,37.9,0,56.9c0,0.5,0,0.9,0,1.4
			c0,0.1,0,0.3,0.1,0.4c-0.1,1.3,0.3,2.5,0.9,3.6c1.5,2.9,3.8,4.6,7,5c0.5,0.1,1,0.1,1.5,0.1c-0.5,0-1,0-1.5-0.1
			c0.6,0.2,1.3,0.2,1.9,0.2c7.6,0,15.2,0,22.7,0c17.5,0,35.1,0,52.6,0c0.6,0,1.3,0,1.9-0.2c4.3-0.3,8-4.2,8.1-8.7c0.1-3,0-5.9,0-8.9
			C609.1,685.7,609.1,684.3,609.1,682.8z M576.2,675.5c0,1.9-1.5,3.4-3.4,3.4h-23.2c-1.4,0-2.6-0.8-3.1-2c-0.2-0.4-0.3-0.9-0.3-1.4
			v-23.2c0-0.5,0.1-0.9,0.3-1.4c0.5-1.2,1.7-2,3.1-2h23.2c1.9,0,3.4,1.5,3.4,3.4V675.5z"/>
	</g>
</g>
</svg>
