<?xml version="1.0" encoding="utf-8"?>
<!-- Generator: Adobe Illustrator 24.1.1, SVG Export Plug-In . SVG Version: 6.00 Build 0)  -->
<svg version="1.1" id="Capa_1" xmlns="http://www.w3.org/2000/svg" xmlns:xlink="http://www.w3.org/1999/xlink" x="0px" y="0px"
	 viewBox="0 0 403.8 403.8" style="enable-background:new 0 0 403.8 403.8;" xml:space="preserve">
<style type="text/css">
	.st0{fill:#FFFFFF;}
</style>
<g>
	<g>
		<g>
			<g>
				<rect x="87.9" y="345.8" class="st0" width="228" height="58"/>
				<path class="st0" d="M294.9,325.5v-95.7c0-0.2,0-0.3,0-0.4c0.1-51.4-41.5-93-92.8-93.1c-51.5,0.1-93.2,41.9-93.2,93.4v95.7
					c0,0.1-0.3,0.4-0.3,0.4h186.7C295.3,325.8,294.9,325.6,294.9,325.5z"/>
			</g>
		</g>
	</g>
	<g>
		<g>
			<path class="st0" d="M201.9,0c-5.5,0-10,4.5-10,10v62.1c0,5.6,4.5,10,10,10s10-4.5,10-10V10C211.9,4.5,207.4,0,201.9,0z"/>
		</g>
	</g>
	<g>
		<g>
			<path class="st0" d="M393.2,170.7h-62.1c-5.5,0-10,4.5-10,10s4.5,10,10,10h62.1c5.5,0,10-4.5,10-10S398.9,170.7,393.2,170.7z"/>
		</g>
	</g>
	<g>
		<g>
			<path class="st0" d="M72.7,170.7H10.6c-5.5,0-10,4.5-10,10s4.5,10,10,10h62.1c5.4,0,10-4.5,10-10S78.2,170.7,72.7,170.7z"/>
		</g>
	</g>
	<g>
		<g>
			<path class="st0" d="M130,96.1L86.1,52.2c-3.9-3.9-10.2-3.9-14.1,0s-3.9,10.2,0,14.1l43.9,43.9c3.9,3.9,10.2,3.9,14.1,0
				C133.9,106.3,133.9,100,130,96.1z"/>
		</g>
	</g>
	<g>
		<g>
			<path class="st0" d="M332,52.2c-3.9-3.9-10.2-4-14.1-0.1c0,0,0,0-0.1,0.1l-43.9,43.9c-3.9,3.9-3.9,10.2,0,14.1
				c1.8,1.8,4.3,2.9,7,2.9s5.2-1.1,7.1-2.9l43.9-43.9C335.8,62.4,335.9,56.1,332,52.2z"/>
		</g>
	</g>
</g>
</svg>
