<svg width="40" height="40" viewBox="0 0 40 40" fill="none" xmlns="http://www.w3.org/2000/svg">
<path d="M20 5.42C20.2778 5.42 20.503 5.6452 20.503 5.923V10.261L23.538 7.22599C23.6363 7.13437 23.7664 7.08447 23.9008 7.0868C24.0352 7.08913 24.1634 7.14351 24.2585 7.23849C24.3536 7.33346 24.4082 7.46163 24.4107 7.59602C24.4132 7.73041 24.3635 7.86053 24.272 7.95899L20.605 11.626C20.5739 11.6569 20.5396 11.6833 20.503 11.7049V19.167L26.5206 15.6977C26.5217 15.6575 26.5275 15.6173 26.538 15.578L27.88 10.57C27.9197 10.4418 28.0074 10.334 28.1249 10.2691C28.2423 10.2042 28.3803 10.1874 28.5099 10.222C28.6395 10.2567 28.7507 10.3402 28.82 10.4551C28.8894 10.5699 28.9116 10.7071 28.882 10.838L27.7734 14.9754L31.963 12.56C32.0744 12.4959 32.2067 12.4786 32.3308 12.512C32.455 12.5454 32.5608 12.6267 32.625 12.738L32.643 12.769C32.7071 12.8801 32.7245 13.0122 32.6913 13.1361C32.6581 13.2601 32.5771 13.3658 32.466 13.43L28.2591 15.8554L32.422 16.971C32.5477 17.0126 32.6528 17.1007 32.7157 17.2173C32.7786 17.3338 32.7945 17.47 32.7603 17.5979C32.726 17.7259 32.6442 17.8359 32.5315 17.9054C32.4187 17.975 32.2837 17.9988 32.154 17.972L27.145 16.63C27.0982 16.6174 27.0538 16.5985 27.0128 16.5739L21.006 20.037L27.027 23.5083C27.0643 23.4874 27.1042 23.4712 27.146 23.46L32.156 22.118C32.2862 22.0896 32.4224 22.1123 32.5363 22.1816C32.6501 22.2508 32.733 22.3612 32.7677 22.4899C32.8025 22.6186 32.7863 22.7557 32.7227 22.8728C32.6591 22.9899 32.5528 23.0781 32.426 23.119L28.2782 24.2296L32.466 26.644C32.698 26.778 32.777 27.074 32.643 27.305L32.625 27.337C32.5606 27.4482 32.4547 27.5292 32.3306 27.5624C32.2065 27.5956 32.0743 27.5782 31.963 27.514L27.7685 25.0958L28.883 29.252C28.9031 29.3186 28.9097 29.3885 28.9023 29.4576C28.8949 29.5268 28.8737 29.5937 28.8399 29.6545C28.8061 29.7153 28.7605 29.7686 28.7056 29.8114C28.6508 29.8542 28.588 29.8856 28.5208 29.9036C28.4537 29.9216 28.3836 29.926 28.3147 29.9164C28.2458 29.9068 28.1796 29.8835 28.1199 29.8478C28.0602 29.8121 28.0083 29.7648 27.9673 29.7086C27.9262 29.6525 27.8969 29.5887 27.881 29.521L26.538 24.512C26.5261 24.4674 26.5202 24.4218 26.5204 24.3762L20.503 20.907V28.2716C20.5407 28.2938 20.5757 28.3207 20.607 28.352L24.274 32.018C24.3251 32.0655 24.3661 32.1227 24.3945 32.1864C24.423 32.25 24.4383 32.3188 24.4396 32.3885C24.4409 32.4582 24.4282 32.5275 24.4021 32.5922C24.3761 32.6568 24.3372 32.7156 24.288 32.7649C24.2387 32.8143 24.18 32.8532 24.1153 32.8793C24.0507 32.9055 23.9814 32.9183 23.9117 32.9171C23.842 32.9159 23.7733 32.9007 23.7096 32.8723C23.6459 32.8439 23.5885 32.803 23.541 32.752L20.503 29.7131V34.053C20.503 34.3308 20.2778 34.556 20 34.556C19.7222 34.556 19.497 34.3308 19.497 34.053V29.714L16.46 32.751C16.4125 32.8021 16.3553 32.8431 16.2916 32.8715C16.2279 32.9 16.1592 32.9153 16.0895 32.9166C16.0198 32.9179 15.9505 32.9052 15.8858 32.8791C15.8211 32.8531 15.7624 32.8142 15.713 32.765C15.6637 32.7157 15.6248 32.657 15.5986 32.5923C15.5725 32.5277 15.5596 32.4584 15.5609 32.3887C15.5621 32.319 15.5773 32.2502 15.6057 32.1866C15.6341 32.1229 15.675 32.0655 15.726 32.018L19.393 28.352C19.4243 28.3207 19.4593 28.2937 19.497 28.2716V20.907L13.4764 24.378C13.4765 24.423 13.4707 24.468 13.459 24.512L12.117 29.521C12.1011 29.5887 12.0718 29.6525 12.0307 29.7086C11.9897 29.7648 11.9378 29.8121 11.8781 29.8478C11.8184 29.8835 11.7522 29.9068 11.6833 29.9164C11.6144 29.926 11.5443 29.9216 11.4772 29.9036C11.41 29.8856 11.3472 29.8542 11.2923 29.8114C11.2375 29.7686 11.1919 29.7153 11.1581 29.6545C11.1243 29.5937 11.1031 29.5268 11.0957 29.4576C11.0883 29.3885 11.0948 29.3186 11.115 29.252L12.2281 25.0977L8.03699 27.514C7.80499 27.647 7.50799 27.568 7.37499 27.337L7.35699 27.305C7.29285 27.1939 7.27546 27.0618 7.30865 26.9379C7.34184 26.8139 7.42289 26.7082 7.53399 26.644L11.7209 24.2301L7.574 23.119C7.50504 23.1044 7.43978 23.0758 7.38221 23.0352C7.32463 22.9945 7.27595 22.9425 7.23913 22.8824C7.2023 22.8223 7.17811 22.7553 7.16803 22.6855C7.15794 22.6158 7.16218 22.5447 7.18047 22.4766C7.19877 22.4085 7.23074 22.3449 7.27444 22.2896C7.31814 22.2342 7.37264 22.1884 7.43464 22.1549C7.49663 22.1213 7.56481 22.1007 7.63502 22.0944C7.70523 22.0881 7.77599 22.0961 7.843 22.118L12.851 23.46C12.8933 23.4713 12.9337 23.4879 12.9714 23.5092L18.994 20.037L13.0049 16.5841C12.9573 16.6165 12.9043 16.6409 12.848 16.656L7.84 17.998C7.70914 18.0276 7.5719 18.0054 7.45706 17.936C7.34222 17.8667 7.2587 17.7555 7.22404 17.6259C7.18937 17.4963 7.20624 17.3583 7.27112 17.2408C7.33599 17.1234 7.44382 17.0357 7.572 16.996L11.7686 15.8714L7.53399 13.43C7.42289 13.3658 7.34184 13.2601 7.30865 13.1361C7.27546 13.0122 7.29285 12.8801 7.35699 12.769L7.37499 12.738C7.43922 12.6267 7.54503 12.5454 7.66916 12.512C7.79328 12.4786 7.92558 12.4959 8.03699 12.56L12.2115 14.9667L11.112 10.864C11.0919 10.7974 11.0853 10.7275 11.0927 10.6584C11.1001 10.5892 11.1213 10.5223 11.1551 10.4615C11.1889 10.4007 11.2345 10.3473 11.2893 10.3045C11.3442 10.2618 11.407 10.2304 11.4742 10.2124C11.5413 10.1943 11.6114 10.19 11.6803 10.1996C11.7492 10.2092 11.8154 10.2325 11.8751 10.2682C11.9348 10.3039 11.9867 10.3512 12.0277 10.4073C12.0688 10.4635 12.0981 10.5273 12.114 10.595L13.456 15.604C13.4638 15.6334 13.469 15.6632 13.4716 15.6932L19.497 19.167V11.7081C19.4585 11.6859 19.4225 11.6585 19.39 11.626L15.724 7.95899C15.6717 7.91184 15.6296 7.85454 15.6001 7.79058C15.5707 7.72662 15.5546 7.65734 15.5527 7.58695C15.5509 7.51657 15.5634 7.44655 15.5896 7.38115C15.6157 7.31576 15.6548 7.25636 15.7046 7.20658C15.7544 7.15679 15.8138 7.11765 15.8792 7.09155C15.9446 7.06545 16.0146 7.05292 16.085 7.05474C16.1553 7.05655 16.2246 7.07267 16.2886 7.10212C16.3525 7.13156 16.4098 7.1737 16.457 7.22599L19.497 10.266V5.923C19.497 5.6452 19.7222 5.42 20 5.42Z" fill="#444444"/>
</svg>
