<svg width="40" height="40" viewBox="0 0 40 40" fill="none" xmlns="http://www.w3.org/2000/svg">
<path fill-rule="evenodd" clip-rule="evenodd" d="M7.85879 8.58579C8.23386 8.21071 8.74257 8 9.273 8H30.727C31.2574 8 31.7661 8.21071 32.1412 8.58579C32.5163 8.96086 32.727 9.46957 32.727 10V12H32.728V20H33C33.2652 20 33.5196 20.1054 33.7071 20.2929C33.8946 20.4804 34 20.7348 34 21V31.591C34 31.8671 33.7761 32.091 33.5 32.091C33.2239 32.091 33 31.8671 33 31.591V28H7V31.409C7 31.6851 6.77614 31.909 6.5 31.909C6.22386 31.909 6 31.6851 6 31.409V21C6 20.7348 6.10536 20.4804 6.29289 20.2929C6.48043 20.1054 6.73478 20 7 20H7.273V10C7.273 9.46957 7.48371 8.96086 7.85879 8.58579ZM7 21L7 27H33V21H7ZM20.5 20H31.727V13H20.5V20ZM8.27301 20H19.5V13H8.27301V20ZM31.727 12H8.273V10C8.273 9.73478 8.37836 9.48043 8.56589 9.29289C8.75343 9.10536 9.00778 9 9.273 9H30.727C30.9922 9 31.2466 9.10536 31.4341 9.29289C31.6216 9.48043 31.727 9.73478 31.727 10V12Z" fill="#444444"/>
</svg>
