<svg width="40" height="40" viewBox="0 0 40 40" fill="none" xmlns="http://www.w3.org/2000/svg">
<path fill-rule="evenodd" clip-rule="evenodd" d="M20 4.5C18.0648 4.5 16.5 6.07492 16.5 8.013V9.57112C16.2789 9.34465 16.0272 9.14811 15.7512 8.98771C15.2193 8.67922 14.6149 8.51652 14 8.51652C13.3851 8.51652 12.7811 8.67899 12.2492 8.98747C11.1667 9.61616 10.5 10.7752 10.5 12.03C10.5 12.3061 10.7239 12.53 11 12.53C11.2761 12.53 11.5 12.3061 11.5 12.03C11.5 11.1309 11.9774 10.3019 12.7508 9.85253C13.1304 9.63244 13.5613 9.51652 14 9.51652C14.4386 9.51652 14.8694 9.6324 15.2488 9.85234C15.6298 10.0738 15.946 10.3915 16.1655 10.7735C16.3842 11.1541 16.4995 11.5857 16.5 12.0245V15C16.5 15.2761 16.7239 15.5 17 15.5H6.5C6.22386 15.5 6 15.7239 6 16C6 16.2761 6.22386 16.5 6.5 16.5H27.5V17.5H8C7.72386 17.5 7.5 17.7239 7.5 18V22C7.5 23.4587 8.07946 24.8576 9.11091 25.8891C10.1424 26.9205 11.5413 27.5 13 27.5H17.4098L16.5068 32.9178C16.4826 33.0628 16.5235 33.211 16.6185 33.3232C16.7135 33.4353 16.853 33.5 17 33.5H31C31.2761 33.5 31.5 33.2761 31.5 33L31.5 27L17.4098 27.5L31.5 26.998V11.5C31.5 10.9696 31.2893 10.4609 30.9142 10.0858C30.5391 9.71071 30.0304 9.5 29.5 9.5C28.9696 9.5 28.4609 9.71071 28.0858 10.0858C27.7107 10.4609 27.5 10.9696 27.5 11.5V15.5H17C17.2761 15.5 17.5 15.2761 17.5 15V11.09C17.5 10.1911 18.1918 9.5 19 9.5C19.8082 9.5 20.5 10.1911 20.5 11.09C20.5 11.3661 20.7239 11.59 21 11.59C21.2761 11.59 21.5 11.3661 21.5 11.09C21.5 9.68094 20.4018 8.5 19 8.5C18.4327 8.5 17.9152 8.6934 17.5 9.01704V8.013C17.5 6.62325 18.6209 5.50027 19.9995 5.5C20.3285 5.50072 20.6541 5.56622 20.9578 5.69275C21.2617 5.81935 21.5376 6.00456 21.7698 6.23782C22.0021 6.47108 22.1861 6.7478 22.3114 7.05219C22.4367 7.35658 22.5008 7.68267 22.5 8.01183C22.4994 8.28798 22.7227 8.51235 22.9988 8.513C23.275 8.51364 23.4994 8.29031 23.5 8.01416C23.5011 7.55365 23.4114 7.09744 23.2361 6.67159C23.0609 6.24573 22.8034 5.85858 22.4785 5.53224C22.1535 5.20591 21.7675 4.94678 21.3424 4.76967C20.9173 4.59255 20.4605 4.50092 20 4.5ZM28.7929 10.7929C28.9804 10.6054 29.2348 10.5 29.5 10.5C29.7652 10.5 30.0196 10.6054 30.2071 10.7929C30.3946 10.9804 30.5 11.2348 30.5 11.5V17.5H28.5V11.5C28.5 11.2348 28.6054 10.9804 28.7929 10.7929ZM8.5 18.5H30.5V26.5H18.0081C18.0023 26.4999 17.9965 26.4999 17.9907 26.5H13C11.8065 26.5 10.6619 26.0259 9.81802 25.182C8.97411 24.3381 8.5 23.1935 8.5 22V18.5ZM30.5 27.5H18.4236L17.5902 32.5H30.5V27.5Z" fill="#444444"/>
</svg>
