<svg width="40" height="40" viewBox="0 0 40 40" fill="none" xmlns="http://www.w3.org/2000/svg">
<path d="M17 16C17.2761 16 17.5 16.2239 17.5 16.5V19.5C17.5 19.7761 17.2761 20 17 20C16.7239 20 16.5 19.7761 16.5 19.5V16.5C16.5 16.2239 16.7239 16 17 16Z" fill="#444444"/>
<path d="M23.5 16.5C23.5 16.2239 23.2761 16 23 16C22.7239 16 22.5 16.2239 22.5 16.5V19.5C22.5 19.7761 22.7239 20 23 20C23.2761 20 23.5 19.7761 23.5 19.5V16.5Z" fill="#444444"/>
<path fill-rule="evenodd" clip-rule="evenodd" d="M31 30C31 30.7403 30.5978 31.3866 30 31.7324V33.5C30 33.7761 29.7761 34 29.5 34C29.2239 34 29 33.7761 29 33.5V32H11V33.5C11 33.7761 10.7761 34 10.5 34C10.2239 34 10 33.7761 10 33.5V31.7324C9.4022 31.3866 9 30.7403 9 30V9C9 7.89543 9.89543 7 11 7H29C30.1046 7 31 7.89543 31 9V30ZM11 8C10.4477 8 10 8.44772 10 9V26H19.5V8H11ZM10 27V30C10 30.5523 10.4477 31 11 31H29C29.5523 31 30 30.5523 30 30V27H10ZM30 26H20.5V8H29C29.5523 8 30 8.44772 30 9V26Z" fill="#444444"/>
</svg>
