<svg width="40" height="40" viewBox="0 0 40 40" fill="none" xmlns="http://www.w3.org/2000/svg">
<path fill-rule="evenodd" clip-rule="evenodd" d="M20 21C20 20.1716 20.6716 19.5 21.5 19.5C22.3284 19.5 23 20.1716 23 21C23 21.8284 22.3284 22.5 21.5 22.5C20.6716 22.5 20 21.8284 20 21ZM21.5 20.5C21.2239 20.5 21 20.7239 21 21C21 21.2761 21.2239 21.5 21.5 21.5C21.7761 21.5 22 21.2761 22 21C22 20.7239 21.7761 20.5 21.5 20.5Z" fill="#444444"/>
<path fill-rule="evenodd" clip-rule="evenodd" d="M27.643 29.8919C25.5299 31.527 22.8786 32.5 20 32.5C13.0964 32.5 7.5 26.9036 7.5 20C7.5 13.0964 13.0964 7.5 20 7.5C26.9036 7.5 32.5 13.0964 32.5 20C32.5 21.4626 32.2488 22.8664 31.7872 24.1709L34.9288 26.5386C35.2358 26.77 35.4384 27.1139 35.4919 27.4945C35.5455 27.8752 35.4457 28.2615 35.2145 28.5687L32.7084 31.8939C32.477 32.2008 32.1331 32.4034 31.7525 32.4569C31.3718 32.5105 30.9855 32.4107 30.6783 32.1795L27.643 29.8919ZM8.5 20C8.5 13.6487 13.6487 8.5 20 8.5C26.3513 8.5 31.5 13.6487 31.5 20C31.5 21.234 31.3057 22.4225 30.9459 23.5368L26.4974 20.1841C26.4991 20.1229 26.5 20.0616 26.5 20C26.5 16.4101 23.5899 13.5 20 13.5C16.4101 13.5 13.5 16.4101 13.5 20C13.5 23.5899 16.4101 26.5 20 26.5C20.8814 26.5 21.7217 26.3246 22.4882 26.0068L26.8125 29.2659C24.9057 30.6702 22.5498 31.5 20 31.5C13.6487 31.5 8.5 26.3513 8.5 20ZM21.5298 25.2845L17.4152 22.1834C17.1082 21.952 16.9056 21.6082 16.8521 21.2275C16.7985 20.8468 16.8983 20.4605 17.1295 20.1534L19.6356 16.8282C19.867 16.5212 20.2108 16.3186 20.5915 16.2651C20.9722 16.2115 21.3585 16.3113 21.6656 16.5425L25.4686 19.4087C25.1736 16.6492 22.8378 14.5 20 14.5C16.9624 14.5 14.5 16.9624 14.5 20C14.5 23.0376 16.9624 25.5 20 25.5C20.5308 25.5 21.0441 25.4248 21.5298 25.2845ZM20.7169 17.1563C20.8612 17.136 21.0077 17.1738 21.1242 17.2614L34.3872 27.2574C34.5036 27.3451 34.5804 27.4755 34.6007 27.6199C34.621 27.7643 34.5832 27.9109 34.4955 28.0274L31.9896 31.3522C31.9019 31.4686 31.7715 31.5454 31.6271 31.5657C31.4827 31.586 31.3361 31.5482 31.2196 31.4605L17.9568 21.4646C17.8404 21.3769 17.7636 21.2465 17.7433 21.1021C17.723 20.9578 17.7609 20.8111 17.8485 20.6947L20.3544 17.3699C20.4421 17.2534 20.5725 17.1766 20.7169 17.1563Z" fill="#444444"/>
</svg>
