<svg width="40" height="40" viewBox="0 0 40 40" fill="none" xmlns="http://www.w3.org/2000/svg">
<path fill-rule="evenodd" clip-rule="evenodd" d="M14.5 25.4776C17.3033 25.225 19.5 22.869 19.5 20C19.5 16.9624 17.0376 14.5 14 14.5C10.9624 14.5 8.5 16.9624 8.5 20C8.5 22.869 10.6967 25.225 13.5 25.4776V25.5H14.5V25.4776ZM13.5 15.5275C11.4142 15.758 9.75804 17.4142 9.52746 19.5H11.5V20.5H9.52746C9.75804 22.5858 11.4142 24.242 13.5 24.4725V22.5H14.5V24.4725C16.5858 24.242 18.242 22.5858 18.4725 20.5H16.5V19.5H18.4725C18.242 17.4142 16.5858 15.758 14.5 15.5275V17.5H13.5V15.5275Z" fill="#444444"/>
<path fill-rule="evenodd" clip-rule="evenodd" d="M26.5 25.4776C29.3032 25.225 31.5 22.869 31.5 20C31.5 16.9624 29.0376 14.5 26 14.5C22.9624 14.5 20.5 16.9624 20.5 20C20.5 22.869 22.6968 25.225 25.5 25.4776V25.5H26.5V25.4776ZM25.5 15.5275C23.4142 15.758 21.758 17.4142 21.5275 19.5H23.5V20.5H21.5275C21.758 22.5858 23.4142 24.242 25.5 24.4725V22.5H26.5V24.4725C28.5858 24.242 30.242 22.5858 30.4725 20.5H28.5V19.5H30.4725C30.242 17.4142 28.5858 15.758 26.5 15.5275V17.5H25.5V15.5275Z" fill="#444444"/>
<path fill-rule="evenodd" clip-rule="evenodd" d="M7.5 9C6.11929 9 5 10.1193 5 11.5V29.5C5 30.8807 6.11929 32 7.5 32H32.5C33.8807 32 35 30.8807 35 29.5V11.5C35 10.1193 33.8807 9 32.5 9H7.5ZM6 11.5C6 10.6716 6.67157 10 7.5 10H32.5C33.3284 10 34 10.6716 34 11.5V29.5C34 30.3284 33.3284 31 32.5 31H7.5C6.67157 31 6 30.3284 6 29.5V11.5Z" fill="#444444"/>
</svg>
