<svg width="40" height="40" viewBox="0 0 40 40" fill="none" xmlns="http://www.w3.org/2000/svg">
<path fill-rule="evenodd" clip-rule="evenodd" d="M20 13.5C16.9624 13.5 14.5 15.9624 14.5 19C14.5 22.0376 16.9624 24.5 20 24.5C23.0376 24.5 25.5 22.0376 25.5 19C25.5 15.9624 23.0376 13.5 20 13.5ZM15.5 19C15.5 16.5147 17.5147 14.5 20 14.5C22.4853 14.5 24.5 16.5147 24.5 19C24.5 21.4853 22.4853 23.5 20 23.5C17.5147 23.5 15.5 21.4853 15.5 19Z" fill="#444444"/>
<path fill-rule="evenodd" clip-rule="evenodd" d="M10.5 19C10.5 13.7533 14.7533 9.5 20 9.5C25.2467 9.5 29.5 13.7533 29.5 19C29.5 24.2467 25.2467 28.5 20 28.5C14.7533 28.5 10.5 24.2467 10.5 19ZM20 10.5C15.3056 10.5 11.5 14.3056 11.5 19C11.5 23.6944 15.3056 27.5 20 27.5C24.6944 27.5 28.5 23.6944 28.5 19C28.5 14.3056 24.6944 10.5 20 10.5Z" fill="#444444"/>
<path d="M31 30C31 30.5523 30.5523 31 30 31C29.4477 31 29 30.5523 29 30C29 29.4477 29.4477 29 30 29C30.5523 29 31 29.4477 31 30Z" fill="#444444"/>
<path d="M26 31C26.5523 31 27 30.5523 27 30C27 29.4477 26.5523 29 26 29C25.4477 29 25 29.4477 25 30C25 30.5523 25.4477 31 26 31Z" fill="#444444"/>
<path fill-rule="evenodd" clip-rule="evenodd" d="M6 8.5C6 7.11929 7.11929 6 8.5 6H31.5C32.8807 6 34 7.11929 34 8.5V31.5C34 32.8807 32.8807 34 31.5 34H8.5C7.11929 34 6 32.8807 6 31.5V8.5ZM8.5 7C7.67157 7 7 7.67157 7 8.5V31.5C7 32.3284 7.67157 33 8.5 33H31.5C32.3284 33 33 32.3284 33 31.5V8.5C33 7.67157 32.3284 7 31.5 7H8.5Z" fill="#444444"/>
</svg>
