<svg width="40" height="40" viewBox="0 0 40 40" fill="none" xmlns="http://www.w3.org/2000/svg">
<path fill-rule="evenodd" clip-rule="evenodd" d="M8.5 9.5C8.5 8.39543 9.39543 7.5 10.5 7.5C11.6046 7.5 12.5 8.39543 12.5 9.5C12.5 10.6046 11.6046 11.5 10.5 11.5C9.39543 11.5 8.5 10.6046 8.5 9.5ZM10.5 8.5C9.94772 8.5 9.5 8.94772 9.5 9.5C9.5 10.0523 9.94772 10.5 10.5 10.5C11.0523 10.5 11.5 10.0523 11.5 9.5C11.5 8.94772 11.0523 8.5 10.5 8.5Z" fill="#444444"/>
<path fill-rule="evenodd" clip-rule="evenodd" d="M15.5 7.5C14.3954 7.5 13.5 8.39543 13.5 9.5C13.5 10.6046 14.3954 11.5 15.5 11.5C16.6046 11.5 17.5 10.6046 17.5 9.5C17.5 8.39543 16.6046 7.5 15.5 7.5ZM14.5 9.5C14.5 8.94772 14.9477 8.5 15.5 8.5C16.0523 8.5 16.5 8.94772 16.5 9.5C16.5 10.0523 16.0523 10.5 15.5 10.5C14.9477 10.5 14.5 10.0523 14.5 9.5Z" fill="#444444"/>
<path d="M21.5 9H28.5C28.7761 9 29 9.22386 29 9.5C29 9.77614 28.7761 10 28.5 10H21.5C21.2239 10 21 9.77614 21 9.5C21 9.22386 21.2239 9 21.5 9Z" fill="#444444"/>
<path fill-rule="evenodd" clip-rule="evenodd" d="M19.5 13.5C15.634 13.5 12.5 16.634 12.5 20.5C12.5 24.366 15.634 27.5 19.5 27.5C23.366 27.5 26.5 24.366 26.5 20.5C26.5 16.634 23.366 13.5 19.5 13.5ZM13.5 20.5C13.5 17.1863 16.1863 14.5 19.5 14.5C22.6954 14.5 25.3074 16.9979 25.4898 20.1477C24.6863 19.7064 23.6955 19.5 22.549 19.5C21.2499 19.5 20.4383 20.3262 19.762 21.0146C19.7176 21.0598 19.6738 21.1044 19.6304 21.1481C18.8933 21.8921 18.2178 22.5 17.057 22.5C15.4582 22.5 14.3296 22.1497 13.5877 21.5277C13.53 21.1938 13.5 20.8504 13.5 20.5ZM14.0245 22.957C14.9632 25.0456 17.0617 26.5 19.5 26.5C22.5375 26.5 25.0477 24.2429 25.4452 21.3145C24.7892 20.7917 23.845 20.5 22.549 20.5C21.6794 20.5 21.1503 21.0344 20.3984 21.7937L20.3408 21.8519C19.5917 22.6079 18.6592 23.5 17.057 23.5C15.8865 23.5 14.8671 23.3265 14.0245 22.957Z" fill="#444444"/>
<path fill-rule="evenodd" clip-rule="evenodd" d="M6.5 7.5C6.5 6.39543 7.39543 5.5 8.5 5.5H30.5C31.6046 5.5 32.5 6.39543 32.5 7.5V31.5C32.5 32.6046 31.6046 33.5 30.5 33.5H8.5C7.39543 33.5 6.5 32.6046 6.5 31.5V7.5ZM8.5 6.5C7.94772 6.5 7.5 6.94772 7.5 7.5V31.5C7.5 32.0523 7.94772 32.5 8.5 32.5H30.5C31.0523 32.5 31.5 32.0523 31.5 31.5V7.5C31.5 6.94772 31.0523 6.5 30.5 6.5H8.5Z" fill="#444444"/>
</svg>
