<svg width="40" height="40" viewBox="0 0 40 40" fill="none" xmlns="http://www.w3.org/2000/svg">
<path d="M24.5 17C24.7761 17 25 17.2239 25 17.5V21.5C25 21.7761 24.7761 22 24.5 22C24.2239 22 24 21.7761 24 21.5V17.5C24 17.2239 24.2239 17 24.5 17Z" fill="#444444"/>
<path fill-rule="evenodd" clip-rule="evenodd" d="M9 13H28V27H9V13ZM10 14V26H27V14H10Z" fill="#444444"/>
<path fill-rule="evenodd" clip-rule="evenodd" d="M29.5 26C29.5 25.1716 30.1716 24.5 31 24.5C31.8284 24.5 32.5 25.1716 32.5 26C32.5 26.8284 31.8284 27.5 31 27.5C30.1716 27.5 29.5 26.8284 29.5 26ZM31 25.5C30.7239 25.5 30.5 25.7239 30.5 26C30.5 26.2761 30.7239 26.5 31 26.5C31.2761 26.5 31.5 26.2761 31.5 26C31.5 25.7239 31.2761 25.5 31 25.5Z" fill="#444444"/>
<path fill-rule="evenodd" clip-rule="evenodd" d="M29.5 22C29.5 21.1716 30.1716 20.5 31 20.5C31.8284 20.5 32.5 21.1716 32.5 22C32.5 22.8284 31.8284 23.5 31 23.5C30.1716 23.5 29.5 22.8284 29.5 22ZM31 21.5C30.7239 21.5 30.5 21.7239 30.5 22C30.5 22.2761 30.7239 22.5 31 22.5C31.2761 22.5 31.5 22.2761 31.5 22C31.5 21.7239 31.2761 21.5 31 21.5Z" fill="#444444"/>
<path fill-rule="evenodd" clip-rule="evenodd" d="M7.5 9C6.11929 9 5 10.1193 5 11.5V28.5C5 29.8807 6.11929 31 7.5 31H8V33H9V31H31V33H32V31H32.5C33.8807 31 35 29.8807 35 28.5V11.5C35 10.1193 33.8807 9 32.5 9H7.5ZM6 11.5C6 10.6716 6.67157 10 7.5 10H32.5C33.3284 10 34 10.6716 34 11.5V28.5C34 29.3284 33.3284 30 32.5 30H7.5C6.67157 30 6 29.3284 6 28.5V11.5Z" fill="#444444"/>
</svg>
