<svg width="40" height="40" viewBox="0 0 40 40" fill="none" xmlns="http://www.w3.org/2000/svg">
<path d="M14 13.5C14 13.2239 13.7761 13 13.5 13C13.2239 13 13 13.2239 13 13.5V15.5C13 15.7761 13.2239 16 13.5 16C13.7761 16 14 15.7761 14 15.5V13.5Z" fill="#444444"/>
<path d="M13.5 22C13.7761 22 14 22.2239 14 22.5V25.5C14 25.7761 13.7761 26 13.5 26C13.2239 26 13 25.7761 13 25.5V22.5C13 22.2239 13.2239 22 13.5 22Z" fill="#444444"/>
<path fill-rule="evenodd" clip-rule="evenodd" d="M11 7C9.89543 7 9 7.89543 9 9V31C9 32.1046 9.89543 33 11 33H29C30.1046 33 31 32.1046 31 31V9C31 7.89543 30.1046 7 29 7H11ZM10 9C10 8.44772 10.4477 8 11 8H29C29.5523 8 30 8.44772 30 9V18H10V9ZM10 19V31C10 31.5523 10.4477 32 11 32H29C29.5523 32 30 31.5523 30 31V19H10Z" fill="#444444"/>
</svg>
