<svg width="40" height="40" viewBox="0 0 40 40" fill="none" xmlns="http://www.w3.org/2000/svg">
<path d="M9.379 17.249C9.80426 17.249 10.1716 17.0011 10.3445 16.642H14.8425C15.0154 17.0011 15.3827 17.249 15.808 17.249C16.3995 17.249 16.879 16.7695 16.879 16.178C16.879 15.5865 16.3995 15.107 15.808 15.107C15.4118 15.107 15.0658 15.3221 14.8806 15.642H10.3064C10.1212 15.3221 9.77522 15.107 9.379 15.107C8.7875 15.107 8.308 15.5865 8.308 16.178C8.308 16.7695 8.7875 17.249 9.379 17.249Z" fill="#444444"/>
<path fill-rule="evenodd" clip-rule="evenodd" d="M12.379 22.071C10.3079 22.071 8.629 23.7499 8.629 25.821V26.892C8.629 28.9631 10.3079 30.642 12.379 30.642C14.4501 30.642 16.129 28.9631 16.129 26.892V25.821C16.129 23.7499 14.4501 22.071 12.379 22.071ZM9.629 25.821C9.629 24.3022 10.8602 23.071 12.379 23.071C13.8978 23.071 15.129 24.3022 15.129 25.821V26.892C15.129 28.4108 13.8978 29.642 12.379 29.642C10.8602 29.642 9.629 28.4108 9.629 26.892V25.821Z" fill="#444444"/>
<path d="M9.379 20.464C9.80426 20.464 10.1716 20.2161 10.3445 19.857H14.8425C15.0154 20.2161 15.3827 20.464 15.808 20.464C16.3995 20.464 16.879 19.9845 16.879 19.393C16.879 18.8015 16.3995 18.322 15.808 18.322C15.4118 18.322 15.0658 18.5371 14.8806 18.857H10.3064C10.1212 18.5371 9.77522 18.322 9.379 18.322C8.7875 18.322 8.308 18.8015 8.308 19.393C8.308 19.9845 8.7875 20.464 9.379 20.464Z" fill="#444444"/>
<path fill-rule="evenodd" clip-rule="evenodd" d="M12.379 6C11.4708 6.00005 10.5721 6.18339 9.73647 6.53906C8.90088 6.89473 8.14568 7.4154 7.51611 8.06988C6.88653 8.72437 6.39554 9.49919 6.07255 10.3479C5.74955 11.1967 5.6012 12.1019 5.63637 13.0094L6.21437 27.9264L6.21444 27.928C6.28126 29.5181 6.95995 31.0209 8.10872 32.1224C9.25749 33.2239 10.7875 33.8389 12.379 33.8389C13.9705 33.8389 15.5005 33.2239 16.6493 32.1224C17.798 31.0209 18.4767 29.5181 18.5436 27.928L18.5436 27.9264L19.1216 13.0094C19.1568 12.1019 19.0084 11.1967 18.6854 10.3479C18.3625 9.49919 17.8715 8.72437 17.2419 8.06988C16.6123 7.4154 15.8571 6.89473 15.0215 6.53906C14.1859 6.18339 13.2871 6.00005 12.379 6ZM14.6299 7.45918C13.9181 7.15622 13.1526 7.00004 12.379 7C11.6055 7.00005 10.8399 7.15622 10.1281 7.45918C9.41636 7.76214 8.77307 8.20565 8.2368 8.76314C7.70052 9.32064 7.28229 9.98064 7.00716 10.7036C6.73203 11.4266 6.60566 12.1977 6.63562 12.9706L7.21359 27.8868C7.26977 29.2189 7.83843 30.4778 8.80083 31.4006C9.76341 32.3236 11.0454 32.8389 12.379 32.8389C13.7126 32.8389 14.9946 32.3236 15.9572 31.4006C16.9196 30.4778 17.4883 29.2181 17.5444 27.886L18.1224 12.9706C18.1523 12.1977 18.026 11.4266 17.7508 10.7036C17.4757 9.98064 17.0575 9.32064 16.5212 8.76314C15.9849 8.20565 15.3416 7.76214 14.6299 7.45918Z" fill="#444444"/>
<path d="M25.0177 17.249C25.443 17.249 25.8103 17.0011 25.9832 16.642H30.4812C30.6541 17.0011 31.0214 17.249 31.4467 17.249C32.0382 17.249 32.5177 16.7695 32.5177 16.178C32.5177 15.5865 32.0382 15.107 31.4467 15.107C31.0505 15.107 30.7045 15.3221 30.5193 15.642H25.9451C25.7599 15.3221 25.4139 15.107 25.0177 15.107C24.4262 15.107 23.9467 15.5865 23.9467 16.178C23.9467 16.7695 24.4262 17.249 25.0177 17.249Z" fill="#444444"/>
<path fill-rule="evenodd" clip-rule="evenodd" d="M28.0177 22.071C25.9466 22.071 24.2677 23.7499 24.2677 25.821V26.892C24.2677 28.9631 25.9466 30.642 28.0177 30.642C30.0888 30.642 31.7677 28.9631 31.7677 26.892V25.821C31.7677 23.7499 30.0888 22.071 28.0177 22.071ZM25.2677 25.821C25.2677 24.3022 26.4989 23.071 28.0177 23.071C29.5365 23.071 30.7677 24.3022 30.7677 25.821V26.892C30.7677 28.4108 29.5365 29.642 28.0177 29.642C26.4989 29.642 25.2677 28.4108 25.2677 26.892V25.821Z" fill="#444444"/>
<path d="M25.0177 20.464C25.443 20.464 25.8103 20.2161 25.9832 19.857H30.4812C30.6541 20.2161 31.0214 20.464 31.4467 20.464C32.0382 20.464 32.5177 19.9845 32.5177 19.393C32.5177 18.8015 32.0382 18.322 31.4467 18.322C31.0505 18.322 30.7045 18.5371 30.5193 18.857H25.9451C25.7599 18.5371 25.4139 18.322 25.0177 18.322C24.4262 18.322 23.9467 18.8015 23.9467 19.393C23.9467 19.9845 24.4262 20.464 25.0177 20.464Z" fill="#444444"/>
<path fill-rule="evenodd" clip-rule="evenodd" d="M28.0177 6C27.1095 6.00005 26.2108 6.18339 25.3752 6.53906C24.5396 6.89473 23.7844 7.4154 23.1548 8.06988C22.5252 8.72437 22.0342 9.49919 21.7112 10.3479C21.3882 11.1967 21.2399 12.1019 21.2751 13.0094L21.8531 27.9264L21.8531 27.928C21.92 29.5181 22.5986 31.0209 23.7474 32.1224C24.8962 33.2239 26.4262 33.8389 28.0177 33.8389C29.6092 33.8389 31.1392 33.2239 32.288 32.1224C33.4367 31.0209 34.1154 29.5181 34.1823 27.928L34.1823 27.9264L34.7603 13.0094C34.7955 12.1019 34.6471 11.1967 34.3241 10.3479C34.0011 9.49919 33.5102 8.72437 32.8806 8.06988C32.251 7.4154 31.4958 6.89473 30.6602 6.53906C29.8246 6.18339 28.9258 6.00005 28.0177 6ZM30.2686 7.45918C29.5568 7.15622 28.7913 7.00004 28.0177 7C27.2442 7.00005 26.4786 7.15622 25.7668 7.45918C25.055 7.76214 24.4118 8.20565 23.8755 8.76314C23.3392 9.32064 22.921 9.98064 22.6459 10.7036C22.3707 11.4266 22.2444 12.1977 22.2743 12.9706L22.8523 27.8868C22.9085 29.2189 23.4771 30.4778 24.4395 31.4006C25.4021 32.3236 26.6841 32.8389 28.0177 32.8389C29.3513 32.8389 30.6333 32.3236 31.5959 31.4006C32.5583 30.4778 33.127 29.2181 33.1831 27.886L33.7611 12.9706C33.791 12.1977 33.6647 11.4266 33.3895 10.7036C33.1144 9.98064 32.6962 9.32064 32.1599 8.76314C31.6236 8.20565 30.9803 7.76214 30.2686 7.45918Z" fill="#444444"/>
</svg>
