<svg width="40" height="40" viewBox="0 0 40 40" fill="none" xmlns="http://www.w3.org/2000/svg">
<path fill-rule="evenodd" clip-rule="evenodd" d="M9 16.5C9 15.1193 10.1193 14 11.5 14H25.5C26.8807 14 28 15.1193 28 16.5V24.5C28 25.8807 26.8807 27 25.5 27H11.5C10.1193 27 9 25.8807 9 24.5V16.5ZM11.5 15C10.6716 15 10 15.6716 10 16.5V24.5C10 25.3284 10.6716 26 11.5 26H25.5C26.3284 26 27 25.3284 27 24.5V16.5C27 15.6716 26.3284 15 25.5 15H11.5Z" fill="#444444"/>
<path d="M32 15C32 15.5523 31.5523 16 31 16C30.4477 16 30 15.5523 30 15C30 14.4477 30.4477 14 31 14C31.5523 14 32 14.4477 32 15Z" fill="#444444"/>
<path d="M31 20C31.5523 20 32 19.5523 32 19C32 18.4477 31.5523 18 31 18C30.4477 18 30 18.4477 30 19C30 19.5523 30.4477 20 31 20Z" fill="#444444"/>
<path fill-rule="evenodd" clip-rule="evenodd" d="M25.169 3.34129L20.215 10.4933L20.2247 10.5H17.3391L13.3966 6.55649C13.2014 6.3612 12.8848 6.36116 12.6895 6.5564C12.4942 6.75164 12.4942 7.06822 12.6894 7.26351L15.9251 10.5H8C6.61929 10.5 5.5 11.6193 5.5 13V30C5.5 31.3807 6.61929 32.5 8 32.5H32C33.3807 32.5 34.5 31.3807 34.5 30V13C34.5 11.6193 33.3807 10.5 32 10.5H21.4268L25.991 3.91071L25.169 3.34129ZM8 11.5C7.17157 11.5 6.5 12.1716 6.5 13V30C6.5 30.8284 7.17157 31.5 8 31.5H32C32.8284 31.5 33.5 30.8284 33.5 30V13C33.5 12.1716 32.8284 11.5 32 11.5H8Z" fill="#444444"/>
</svg>
