<svg width="40" height="40" viewBox="0 0 40 40" fill="none" xmlns="http://www.w3.org/2000/svg">
<path d="M16 9V8H15V9H16Z" fill="#444444"/>
<path d="M20 9V8H19V9H20Z" fill="#444444"/>
<path d="M24 9V8H23V9H24Z" fill="#444444"/>
<path d="M16 13V12H15V13H16Z" fill="#444444"/>
<path d="M20 13V12H19V13H20Z" fill="#444444"/>
<path d="M24 13V12H23V13H24Z" fill="#444444"/>
<path d="M16 17V16H15V17H16Z" fill="#444444"/>
<path d="M20 17V16H19V17H20Z" fill="#444444"/>
<path d="M24 17V16H23V17H24Z" fill="#444444"/>
<path d="M16 21V20H15V21H16Z" fill="#444444"/>
<path d="M20 21V20H19V21H20Z" fill="#444444"/>
<path d="M24 21V20H23V21H24Z" fill="#444444"/>
<path fill-rule="evenodd" clip-rule="evenodd" d="M28 32V36H11V4H28V28H33V32H28ZM12 35V25H27V28H15V32H27V35H12ZM32 31V29H16V31H32ZM27 24H12V5H27V24Z" fill="#444444"/>
</svg>
