<svg width="40" height="40" viewBox="0 0 40 40" fill="none" xmlns="http://www.w3.org/2000/svg">
<path d="M30.3252 14.8479C30.6014 15.3262 30.4375 15.9378 29.9592 16.214C29.4809 16.4901 28.8693 16.3262 28.5932 15.8479C28.3171 15.3696 28.4809 14.758 28.9592 14.4819C29.4375 14.2058 30.0491 14.3696 30.3252 14.8479Z" fill="#444444"/>
<path fill-rule="evenodd" clip-rule="evenodd" d="M27.7403 5.37068L5.22365 18.3707L6.72365 20.9688L3.25955 22.9688L6.75955 29.0309L10.2237 27.0309L11.7237 29.629L22.618 23.3392L26.7098 30.5H36L36 35H37V25H36L36 29.5H27.2902L23.484 22.8392L34.2403 16.629L27.7403 5.37068ZM32.8743 16.263L12.0897 28.263L6.58968 18.7367L27.3743 6.73671L32.8743 16.263ZM4.62558 23.3348L7.22365 21.8348L9.72365 26.1649L7.12558 27.6649L4.62558 23.3348Z" fill="#444444"/>
</svg>
