<svg width="40" height="40" viewBox="0 0 40 40" fill="none" xmlns="http://www.w3.org/2000/svg">
<path d="M9 25H25V26H9V25Z" fill="#444444"/>
<path d="M9 28H25V29H9V28Z" fill="#444444"/>
<path d="M15 16V17H14V16H15Z" fill="#444444"/>
<path d="M19 16V17H18V16H19Z" fill="#444444"/>
<path d="M23 16V17H22V16H23Z" fill="#444444"/>
<path d="M27 16V17H26V16H27Z" fill="#444444"/>
<path fill-rule="evenodd" clip-rule="evenodd" d="M9 11H32V22H9V11ZM10 12V21H31V12H10Z" fill="#444444"/>
<path fill-rule="evenodd" clip-rule="evenodd" d="M30 25C28.8954 25 28 25.8954 28 27C28 28.1046 28.8954 29 30 29C31.1046 29 32 28.1046 32 27C32 25.8954 31.1046 25 30 25ZM29 27C29 26.4477 29.4477 26 30 26C30.5523 26 31 26.4477 31 27C31 27.5523 30.5523 28 30 28C29.4477 28 29 27.5523 29 27Z" fill="#444444"/>
<path fill-rule="evenodd" clip-rule="evenodd" d="M36 7H5V33H36V7ZM6 32V8H35V32H6Z" fill="#444444"/>
</svg>
