<svg width="40" height="40" viewBox="0 0 40 40" fill="none" xmlns="http://www.w3.org/2000/svg">
<path d="M19 7.5C18.0599 7.5 17.1485 7.62383 16.2808 7.85599L16.4749 8.83477L19.0649 8.49577L19 7.5Z" fill="#444444"/>
<path d="M14.6529 8.43992C14.043 8.71752 13.4611 9.05291 12.9153 9.44151C11.5492 10.4117 10.4354 11.695 9.66723 13.1841C8.89899 14.6732 8.49875 16.3247 8.5 18.0004L9.5 17.9996C9.49887 16.4838 9.86095 14.9897 10.5559 13.6425C11.2509 12.2954 12.2586 11.1343 13.4945 10.2567C13.9884 9.90505 14.5153 9.60124 15.0671 9.35008L14.6529 8.43992Z" fill="#444444"/>
<path d="M20 18C20 18.5523 19.5523 19 19 19C18.4477 19 18 18.5523 18 18C18 17.4477 18.4477 17 19 17C19.5523 17 20 17.4477 20 18Z" fill="#444444"/>
<path fill-rule="evenodd" clip-rule="evenodd" d="M15 18C15 15.7909 16.7909 14 19 14C21.2091 14 23 15.7909 23 18C23 20.2091 21.2091 22 19 22C16.7909 22 15 20.2091 15 18ZM19 15C17.3431 15 16 16.3431 16 18C16 19.6569 17.3431 21 19 21C20.6569 21 22 19.6569 22 18C22 16.3431 20.6569 15 19 15Z" fill="#444444"/>
<path fill-rule="evenodd" clip-rule="evenodd" d="M6 18C6 25.0123 11.552 30.7278 18.5 30.9906V34.5H19C28.1131 34.5 35.5 27.1131 35.5 18V16H33V17H34.5V18C34.5 26.3936 27.8294 33.2282 19.5 33.4921V30.9906C26.448 30.7278 32 25.0123 32 18C32 10.8203 26.1797 5 19 5C11.8203 5 6 10.8203 6 18ZM19 6C12.3726 6 7 11.3726 7 18C7 24.4599 12.1045 29.7276 18.5 29.9898V29.957H19.5V29.9898C25.8955 29.7276 31 24.4599 31 18C31 11.3726 25.6274 6 19 6Z" fill="#444444"/>
</svg>
