<svg width="40" height="40" viewBox="0 0 40 40" fill="none" xmlns="http://www.w3.org/2000/svg">
<path d="M21.5 9.5C21.5 10.0523 21.0523 10.5 20.5 10.5C19.9477 10.5 19.5 10.0523 19.5 9.5C19.5 8.94772 19.9477 8.5 20.5 8.5C21.0523 8.5 21.5 8.94772 21.5 9.5Z" fill="#444444"/>
<path d="M11 29.5V28.5H10V29.5H11Z" fill="#444444"/>
<path d="M15 29.5V28.5H14V29.5H15Z" fill="#444444"/>
<path d="M19 29.5V28.5H18V29.5H19Z" fill="#444444"/>
<path d="M23 29.5V28.5H22V29.5H23Z" fill="#444444"/>
<path d="M27 29.5V28.5H26V29.5H27Z" fill="#444444"/>
<path d="M31 29.5V28.5H30V29.5H31Z" fill="#444444"/>
<path d="M17.5 17.5C17.5 18.9796 18.9539 20 20.5 20C22.0461 20 23.5 18.9796 23.5 17.5H22.5C22.5 18.2304 21.7139 19 20.5 19C19.2861 19 18.5 18.2304 18.5 17.5H17.5Z" fill="#444444"/>
<path d="M18.5 14V15.5H17.5V14H18.5Z" fill="#444444"/>
<path d="M23.5 14V15.5H22.5V14H23.5Z" fill="#444444"/>
<path fill-rule="evenodd" clip-rule="evenodd" d="M36 6.5H5V33.5H36V6.5ZM6 11.5V7.5H35V11.5H6ZM12.6428 12.8999C12.6665 12.7657 12.6933 12.6324 12.7231 12.5H6V24.5H14.2716C14.5393 23.3785 15.2472 22.4011 16.2149 21.6787C14.7068 20.6619 13.5312 19.1184 12.9313 17.261C12.5282 17.0707 12.1834 16.7761 11.9324 16.4077C11.6815 16.0393 11.5336 15.6104 11.5041 15.1655C11.4747 14.7206 11.5647 14.276 11.7649 13.8776C11.9651 13.4793 12.2682 13.1417 12.6428 12.8999ZM17.1291 22.2098L17.1526 22.247C16.2369 22.824 15.5897 23.6141 15.3094 24.5H25.6904C25.4075 23.6061 24.7513 22.8094 23.8247 22.2324C22.8067 22.7269 21.6788 23 20.5 23C19.3033 23 18.1591 22.7186 17.1291 22.2098ZM24.7853 21.6786C25.7527 22.401 26.4607 23.3781 26.7285 24.5H35V12.5H28.2801C28.3099 12.6332 28.3367 12.7672 28.3603 12.9017C28.7342 13.1437 29.0366 13.4812 29.2362 13.8793C29.4361 14.2777 29.5258 14.7222 29.496 15.1668C29.4663 15.6115 29.3183 16.0401 29.0673 16.4084C28.8164 16.7765 28.4716 17.0709 28.0687 17.261C27.4688 19.1183 26.2933 20.6618 24.7853 21.6786ZM6 25.5V32.5H35V25.5H6ZM27.2523 12.5001L13.7506 12.5039C13.7025 12.6921 13.6614 12.8824 13.6274 13.075L13.5512 13.5041L13.1852 13.7401C12.9605 13.8851 12.7785 14.0878 12.6584 14.3267C12.5383 14.5657 12.4843 14.8325 12.5019 15.0994C12.5196 15.3663 12.6083 15.6237 12.7589 15.8448C12.9094 16.0657 13.1163 16.2424 13.358 16.3566L13.7507 16.541L13.8828 16.9533C14.8572 19.9697 17.5156 22 20.5 22C23.4844 22 26.1427 19.9703 27.1171 16.9538L27.2493 16.541L27.6417 16.3568C27.8833 16.2427 28.0905 16.0659 28.241 15.8451C28.3916 15.6242 28.4804 15.367 28.4983 15.1002C28.5161 14.8334 28.4623 14.5667 28.3424 14.3277C28.2225 14.0887 28.0409 13.886 27.8164 13.7408L27.4517 13.5043L27.3757 13.0764C27.3417 12.8831 27.3004 12.6903 27.2523 12.5001Z" fill="#444444"/>
</svg>
