<svg width="40" height="40" viewBox="0 0 40 40" fill="none" xmlns="http://www.w3.org/2000/svg">
<path fill-rule="evenodd" clip-rule="evenodd" d="M11.5 30H16.5V10H11.5V30ZM15.5 11V29H12.5V11H15.5Z" fill="#444444"/>
<path fill-rule="evenodd" clip-rule="evenodd" d="M17.5 30H22.5V10H17.5V30ZM21.5 11V29H18.5V11H21.5Z" fill="#444444"/>
<path fill-rule="evenodd" clip-rule="evenodd" d="M23.5 30H28.5V10H23.5V30ZM27.5 11V29H24.5V11H27.5Z" fill="#444444"/>
<path fill-rule="evenodd" clip-rule="evenodd" d="M34.5 8H5.5V32H34.5V8ZM33.5 10V9H6.5V10H10.5V30H6.5V31H33.5V30H29.5V10H33.5ZM33.5 29V11H30.5V29H33.5ZM6.5 29H9.5V11H6.5V29Z" fill="#444444"/>
</svg>
